<svg width="24" height="22" viewBox="0 0 24 22" fill="none" xmlns="http://www.w3.org/2000/svg">
<path d="M23.5468 0.496949C23.1374 0.153508 22.4944 0.104368 21.8295 0.368429H21.8285C21.1292 0.64599 2.03537 8.74817 1.25808 9.0792C1.11671 9.12779 -0.118008 9.58356 0.00917513 10.5988C0.122712 11.5141 1.11507 11.8931 1.23625 11.9369L6.09049 13.5812C6.41255 14.6418 7.59977 18.5546 7.86233 19.3905C8.02608 19.9116 8.293 20.5964 8.7608 20.7373C9.17128 20.8939 9.57957 20.7508 9.84376 20.5456L12.8116 17.8224L17.6025 21.5187L17.7166 21.5862C18.0419 21.7287 18.3536 21.8 18.6511 21.8C18.8809 21.8 19.1014 21.7574 19.3121 21.672C20.0299 21.3804 20.317 20.7038 20.347 20.6271L23.9256 2.22549C24.144 1.24269 23.8405 0.74265 23.5468 0.496949ZM10.3716 14.2389L8.73405 18.5589L7.0965 13.1589L19.6511 3.97888L10.3716 14.2389Z" fill="#444444"/>
</svg>
