<svg width="24" height="16" viewBox="0 0 24 16" fill="none" xmlns="http://www.w3.org/2000/svg">
<path fill-rule="evenodd" clip-rule="evenodd" d="M23.4493 1.77506C23.6161 1.213 23.4493 0.799988 22.6553 0.799988H20.0297C19.3621 0.799988 19.0543 1.15677 18.8874 1.55019C18.8874 1.55019 17.5521 4.83823 15.6606 6.97402C15.0487 7.59227 14.7705 7.78898 14.4367 7.78898C14.2698 7.78898 14.0282 7.59227 14.0282 7.03025V1.77506C14.0282 1.10058 13.8345 0.799988 13.2781 0.799988H9.15213C8.73494 0.799988 8.48403 1.11303 8.48403 1.40971C8.48403 2.0491 9.42974 2.19655 9.52722 3.99516V7.90144C9.52722 8.75788 9.37413 8.91316 9.04032 8.91316C8.15023 8.91316 5.98507 5.61043 4.70093 1.83124C4.44927 1.0967 4.19686 0.799988 3.52583 0.799988H0.900217C0.150043 0.799988 0 1.15677 0 1.55019C0 2.25278 0.89014 5.73753 4.14464 10.3464C6.31429 13.4938 9.37118 15.2 12.1528 15.2C13.8218 15.2 14.0283 14.821 14.0283 14.1683V11.7895C14.0283 11.0316 14.1864 10.8803 14.7149 10.8803C15.1043 10.8803 15.7719 11.077 17.3296 12.5946C19.1099 14.3931 19.4034 15.2 20.4047 15.2H23.0304C23.7805 15.2 24.1556 14.821 23.9392 14.0732C23.7024 13.3279 22.8525 12.2465 21.7247 10.9646C21.1127 10.2339 20.1947 9.44711 19.9165 9.05359C19.5271 8.54781 19.6384 8.32293 19.9165 7.87333C19.9165 7.87333 23.1155 3.32068 23.4493 1.77506Z" />
</svg>
