<svg width="72" height="73" viewBox="0 0 72 73" fill="none" xmlns="http://www.w3.org/2000/svg">
<g clip-path="url(#clip0_1025_44)">
<path d="M46.6723 31.0767C46.3842 30.8029 46.0421 30.5856 45.6655 30.4374C45.2889 30.2891 44.8852 30.2128 44.4775 30.2128C44.0698 30.2128 43.6661 30.2891 43.2895 30.4374C42.9129 30.5856 42.5707 30.8029 42.2827 31.0767L37.3343 35.7733C35.0402 35.1251 30.7592 33.6519 28.046 31.0767C25.3328 28.5016 23.7806 24.4385 23.0976 22.2611L28.046 17.5645C28.3346 17.2911 28.5635 16.9664 28.7196 16.609C28.8758 16.2515 28.9562 15.8684 28.9562 15.4814C28.9562 15.0944 28.8758 14.7113 28.7196 14.3538C28.5635 13.9964 28.3346 13.6717 28.046 13.3983L15.6285 1.61267C15.3405 1.33881 14.9983 1.12155 14.6217 0.973316C14.2451 0.82508 13.8414 0.748779 13.4337 0.748779C13.026 0.748779 12.6223 0.82508 12.2457 0.973316C11.8691 1.12155 11.527 1.33881 11.2389 1.61267L2.81984 9.60332C1.64017 10.723 0.975837 12.261 1.00067 13.8314C1.07207 18.0271 2.24242 32.6 14.3433 44.0851C26.4442 55.5702 41.7984 56.6781 46.2222 56.7488H46.3091C47.9482 56.7488 49.4973 56.1359 50.6707 55.0222L59.0898 47.0315C59.3783 46.7581 59.6072 46.4334 59.7634 46.076C59.9196 45.7185 60 45.3354 60 44.9484C60 44.5615 59.9196 44.1783 59.7634 43.8209C59.6072 43.4634 59.3783 43.1387 59.0898 42.8653L46.6723 31.0767ZM46.278 50.853C42.4038 50.7911 29.1481 49.8041 18.7329 39.916C8.28354 29.9984 7.27152 17.373 7.20943 13.7695L13.4337 7.862L21.4616 15.4814L17.4477 19.2911C17.0828 19.6372 16.8145 20.0641 16.6671 20.5332C16.5197 21.0024 16.4977 21.499 16.6033 21.9782C16.6778 22.3171 18.5001 30.3519 23.6533 35.243C28.8066 40.134 37.2722 41.8635 37.6292 41.9342C38.1338 42.0373 38.6576 42.0181 39.1524 41.8786C39.6471 41.739 40.097 41.4836 40.4604 41.1358L44.4775 37.3261L52.5054 44.9455L46.278 50.853Z" fill="#242022" fill-opacity="0.99"/>
</g>
<defs>
<clipPath id="clip0_1025_44">
<rect width="72" height="72" fill="white" transform="translate(0 0.748779)"/>
</clipPath>
</defs>
</svg>
