<svg width="32" height="50" viewBox="0 0 32 50" fill="none" xmlns="http://www.w3.org/2000/svg">
<path d="M31.7327 24.743C31.5486 30.3341 30.5746 35.7243 28.0011 40.7285C26.3804 43.8334 24.2416 46.6227 21.6821 48.9701C21.5542 49.0783 21.404 49.1551 21.2426 49.1945C21.0815 49.2339 20.9134 49.2349 20.7517 49.1975C20.5359 49.1143 20.3558 48.6674 20.328 48.3689C20.1301 45.7185 19.7204 43.1352 18.1743 40.9011C17.8719 40.4649 17.5285 40.0601 17.1488 39.6927C16.2342 38.8032 15.4701 38.8255 14.5318 39.6927C12.9342 41.1733 12.2433 43.1352 11.7959 45.2027C11.5801 46.208 11.5326 47.2498 11.3723 48.2673C11.3228 48.5821 11.2119 49.0797 11.0239 49.1366C10.8501 49.1809 10.669 49.1855 10.4932 49.1504C10.3174 49.1155 10.1513 49.0413 10.0063 48.9335C9.09965 48.0988 8.15141 47.2702 7.4328 46.2791C6.17376 44.5568 5.00973 42.7493 3.91104 40.9113C2.28576 38.1918 1.32366 35.1739 0.801038 32.0625C0.372676 29.325 0.108229 26.5631 0.00918526 23.7925C-0.0739592 22.0276 0.385314 20.2911 2.29368 19.692C3.19837 19.4077 4.24956 19.4178 5.20374 19.5417C8.66611 19.9905 12.1107 20.5572 15.4028 21.8448C15.7215 21.9687 16.1709 21.861 16.5233 21.7432C20.2528 20.4969 24.119 19.7321 28.0328 19.4666C30.0777 19.3264 31.6515 21.0507 31.7386 23.2197C31.7505 23.7275 31.7327 24.2352 31.7327 24.743ZM10.8398 35.444C10.8793 35.3343 10.9585 35.1576 11.008 34.9728C11.0575 34.788 11.0872 34.5666 11.1268 34.3473C17.3211 36.2157 20.8982 40.2797 21.5614 46.9899C21.7486 46.881 21.924 46.7517 22.084 46.604C23.2044 45.2514 24.4595 43.9902 25.3979 42.5137C29.0998 36.6808 30.4855 30.1757 30.3846 23.2847C30.3588 21.6112 29.1968 20.6608 27.9081 20.8781C25.2276 21.3249 22.5413 21.7493 19.8628 22.2124C19.279 22.3455 18.7027 22.5116 18.1367 22.71L18.1723 22.9537L23.4677 25.1146L22.9629 26.0407C19.2195 24.7653 15.5869 23.4797 11.9246 22.2957C9.16811 21.4061 6.30137 20.9273 3.41217 20.874C2.45403 20.8557 1.86014 21.3919 1.55924 22.2266C1.35923 22.794 1.27565 23.3977 1.31376 23.9996C1.46223 26.1321 1.62061 28.2646 1.89577 30.389C2.63814 36.1467 4.94441 41.1976 8.62652 45.5906C9.05016 46.0963 9.55299 46.5329 10.1013 47.0874C10.7586 43.1656 11.5445 39.6115 15.3533 37.4952L10.8398 35.444Z" fill="#A2C2CF"/>
<path d="M15.8115 0C18.1778 2.10655 19.9926 4.3036 22.0266 9.90172C23.6087 9.19181 25.0868 8.40299 26.7005 7.79051C28.3142 7.17804 29.964 6.74652 31.7427 6.18972C30.8387 9.74858 30.016 13.0314 29.2024 16.2631L21.7577 17.3257C21.5701 15.7017 21.3283 14.1171 21.1226 12.3377C18.4106 14.3097 16.9416 16.4997 15.8386 19.4392C14.8352 16.4232 13.1401 14.3259 10.6133 12.3377C10.3873 14.1519 10.1071 15.6297 9.89915 17.321L2.48609 16.277C1.6702 13.029 0.84301 9.74394 0 6.3614C3.45566 6.9762 6.62655 8.24291 9.75451 10.0107C11.0382 6.141 12.8214 2.67494 15.8115 0ZM11.036 10.6719L15.7821 15.015L20.6706 10.5977C19.8412 7.78358 18.3089 4.48453 15.8386 1.95343C13.4475 4.47061 12.0372 7.47964 11.0315 10.6673L11.036 10.6719ZM28.1266 14.7458L29.9369 8.04574C27.7424 9.07349 24.6257 10.2497 22.4787 11.4097C22.7047 12.5697 22.8674 14.5069 23.0911 15.762C24.6483 15.5137 26.2372 15.2655 27.8238 14.9987C27.8902 14.984 27.9521 14.9534 28.0048 14.9094C28.0572 14.8655 28.099 14.8094 28.1266 14.7458ZM1.799 8.04574C2.32334 10.0804 2.96975 12.4769 3.50538 14.5092C3.54833 14.6762 3.63421 14.9523 3.73139 14.9732C5.37673 15.2493 7.02659 15.4905 8.62221 15.7318C8.87533 14.196 9.00188 12.9571 9.25727 11.4097L1.799 8.04574Z" fill="#483632"/>
</svg>
