<svg width="145" height="44" viewBox="0 0 145 44" fill="#E73D66" xmlns="http://www.w3.org/2000/svg">
<path d="M73.7651 18.5882C73.6341 18.5882 73.5228 18.5429 73.431 18.4524C73.3393 18.3618 73.2935 18.2453 73.2935 18.1029V13.7353C73.0838 13.9165 72.8153 14.0718 72.4877 14.2012C72.1602 14.3176 71.7999 14.4082 71.4068 14.4729C71.0269 14.5247 70.6469 14.5506 70.2669 14.5506C68.6161 14.5506 67.3911 14.1559 66.5919 13.3665C65.8058 12.5771 65.4127 11.3865 65.4127 9.79471V5.48529C65.4127 5.34294 65.4586 5.22647 65.5503 5.13588C65.642 5.04529 65.7534 5 65.8844 5H68.0462C68.1903 5 68.3082 5.04529 68.3999 5.13588C68.4916 5.22647 68.5375 5.34294 68.5375 5.48529V9.65882C68.5375 10.3576 68.7144 10.8753 69.0681 11.2118C69.4219 11.5482 70.0246 11.7165 70.8762 11.7165C71.1251 11.7165 71.3872 11.6971 71.6623 11.6582C71.9374 11.6065 72.1995 11.5288 72.4484 11.4253C72.6973 11.3218 72.9004 11.1794 73.0576 10.9982C73.2149 10.8171 73.2935 10.5906 73.2935 10.3188V5.48529C73.2935 5.34294 73.3393 5.22647 73.431 5.13588C73.5228 5.04529 73.6341 5 73.7651 5H75.9269C76.0711 5 76.189 5.04529 76.2807 5.13588C76.3724 5.22647 76.4183 5.34294 76.4183 5.48529V18.1029C76.4183 18.2453 76.3724 18.3618 76.2807 18.4524C76.189 18.5429 76.0711 18.5882 75.9269 18.5882H73.7651Z" fill="#E73D66"/>
<path d="M79.8874 18.5882C79.7433 18.5882 79.6254 18.5429 79.5337 18.4524C79.442 18.3618 79.3961 18.2453 79.3961 18.1029V5.48529C79.3961 5.34294 79.442 5.22647 79.5337 5.13588C79.6254 5.04529 79.7433 5 79.8874 5H88.7901C88.9343 5 89.0522 5.04529 89.1439 5.13588C89.2356 5.22647 89.2815 5.34294 89.2815 5.48529V7.03824C89.2815 7.16765 89.2356 7.27765 89.1439 7.36824C89.0522 7.45882 88.9343 7.50412 88.7901 7.50412H82.4226V10.5518H88.3578C88.5019 10.5518 88.6198 10.5971 88.7115 10.6876C88.8032 10.7782 88.8491 10.8947 88.8491 11.0371V12.4735C88.8491 12.6029 88.8032 12.7129 88.7115 12.8035C88.6198 12.8941 88.5019 12.9394 88.3578 12.9394H82.4226V16.0841H88.9474C89.0915 16.0841 89.2094 16.1294 89.3011 16.22C89.3928 16.3106 89.4387 16.4271 89.4387 16.5694V18.1029C89.4387 18.2453 89.3928 18.3618 89.3011 18.4524C89.2094 18.5429 89.0915 18.5882 88.9474 18.5882H79.8874Z" fill="#E73D66"/>
<path d="M95.2929 18.5882C95.1488 18.5882 95.0309 18.5429 94.9392 18.4524C94.8475 18.3618 94.8016 18.2453 94.8016 18.1029V7.69824H91.2248C91.0938 7.69824 90.9824 7.65294 90.8907 7.56235C90.799 7.47176 90.7531 7.36176 90.7531 7.23235V5.48529C90.7531 5.34294 90.799 5.22647 90.8907 5.13588C90.9824 5.04529 91.0938 5 91.2248 5H101.523C101.667 5 101.785 5.04529 101.877 5.13588C101.968 5.22647 102.014 5.34294 102.014 5.48529V7.23235C102.014 7.36176 101.968 7.47176 101.877 7.56235C101.785 7.65294 101.667 7.69824 101.523 7.69824H97.9657V18.1029C97.9657 18.2453 97.9198 18.3618 97.8281 18.4524C97.7364 18.5429 97.6185 18.5882 97.4744 18.5882H95.2929Z" fill="#E73D66"/>
<path d="M104.396 18.5882C104.252 18.5882 104.134 18.5429 104.042 18.4524C103.95 18.3618 103.905 18.2453 103.905 18.1029V5.48529C103.905 5.34294 103.95 5.22647 104.042 5.13588C104.134 5.04529 104.252 5 104.396 5H106.538C106.682 5 106.8 5.04529 106.892 5.13588C106.983 5.22647 107.029 5.34294 107.029 5.48529V9.79471H109.054C110.665 9.79471 111.916 10.1571 112.807 10.8818C113.698 11.5935 114.144 12.6741 114.144 14.1235C114.144 14.9776 113.947 15.7476 113.554 16.4335C113.174 17.1065 112.604 17.6371 111.844 18.0253C111.097 18.4006 110.167 18.5882 109.054 18.5882H104.396ZM107.029 16.1618H108.955C109.584 16.1618 110.069 15.9741 110.41 15.5988C110.75 15.2106 110.921 14.7188 110.921 14.1235C110.921 13.4765 110.75 12.9976 110.41 12.6871C110.069 12.3635 109.584 12.2018 108.955 12.2018H107.029V16.1618ZM116.227 18.5882C116.083 18.5882 115.965 18.5429 115.873 18.4524C115.781 18.3618 115.735 18.2453 115.735 18.1029V5.48529C115.735 5.34294 115.781 5.22647 115.873 5.13588C115.965 5.04529 116.083 5 116.227 5H118.448C118.592 5 118.71 5.04529 118.801 5.13588C118.893 5.22647 118.939 5.34294 118.939 5.48529V18.1029C118.939 18.2453 118.893 18.3618 118.801 18.4524C118.71 18.5429 118.592 18.5882 118.448 18.5882H116.227Z" fill="#E73D66"/>
<path d="M122.341 18.5882C122.196 18.5882 122.078 18.5429 121.987 18.4524C121.895 18.3618 121.849 18.2453 121.849 18.1029V5.48529C121.849 5.34294 121.895 5.22647 121.987 5.13588C122.078 5.04529 122.196 5 122.341 5H127.706C128.767 5 129.684 5.16176 130.457 5.48529C131.243 5.80882 131.852 6.30059 132.285 6.96059C132.73 7.60765 132.953 8.41647 132.953 9.38706C132.953 10.3706 132.73 11.1859 132.285 11.8329C131.852 12.4671 131.243 12.9394 130.457 13.25C129.684 13.5606 128.767 13.7159 127.706 13.7159H125.072V18.1029C125.072 18.2453 125.026 18.3618 124.935 18.4524C124.843 18.5429 124.725 18.5882 124.581 18.5882H122.341ZM125.013 11.3088H127.607C128.276 11.3088 128.793 11.1471 129.16 10.8235C129.54 10.5 129.73 10.0147 129.73 9.36765C129.73 8.79824 129.56 8.33235 129.219 7.97C128.891 7.60765 128.354 7.42647 127.607 7.42647H125.013V11.3088Z" fill="#E73D66"/>
<path d="M135.449 18.5882C135.305 18.5882 135.187 18.5429 135.095 18.4524C135.003 18.3618 134.957 18.2453 134.957 18.1029V5.48529C134.957 5.34294 135.003 5.22647 135.095 5.13588C135.187 5.04529 135.305 5 135.449 5H144.351C144.496 5 144.614 5.04529 144.705 5.13588C144.797 5.22647 144.843 5.34294 144.843 5.48529V7.03824C144.843 7.16765 144.797 7.27765 144.705 7.36824C144.614 7.45882 144.496 7.50412 144.351 7.50412H137.984V10.5518H143.919C144.063 10.5518 144.181 10.5971 144.273 10.6876C144.365 10.7782 144.41 10.8947 144.41 11.0371V12.4735C144.41 12.6029 144.365 12.7129 144.273 12.8035C144.181 12.8941 144.063 12.9394 143.919 12.9394H137.984V16.0841H144.509C144.653 16.0841 144.771 16.1294 144.862 16.22C144.954 16.3106 145 16.4271 145 16.5694V18.1029C145 18.2453 144.954 18.3618 144.862 18.4524C144.771 18.5429 144.653 18.5882 144.509 18.5882H135.449Z" fill="#E73D66"/>
<path d="M75.0622 38C74.9181 38 74.8002 37.9547 74.7085 37.8641C74.6168 37.7735 74.5709 37.6571 74.5709 37.5147V27.1682H70.6207V29.2841C70.6207 30.85 70.5421 32.1829 70.3849 33.2829C70.2276 34.37 69.9591 35.2565 69.5791 35.9424C69.1991 36.6282 68.6751 37.1394 68.0069 37.4759C67.3518 37.7994 66.5133 37.9741 65.4913 38C65.3603 38 65.2424 37.9547 65.1376 37.8641C65.0459 37.7606 65 37.6376 65 37.4953V35.7676C65 35.4959 65.1507 35.3341 65.452 35.2824C65.832 35.2176 66.153 35.0365 66.415 34.7388C66.6901 34.4412 66.9129 34.0271 67.0832 33.4965C67.2666 32.9529 67.3976 32.2994 67.4763 31.5359C67.5549 30.7594 67.5942 29.8794 67.5942 28.8959V24.8971C67.5942 24.7547 67.64 24.6382 67.7317 24.5476C67.8234 24.4571 67.9348 24.4118 68.0658 24.4118H77.2044C77.3485 24.4118 77.4664 24.4571 77.5581 24.5476C77.6498 24.6382 77.6957 24.7547 77.6957 24.8971V37.5147C77.6957 37.6571 77.6498 37.7735 77.5581 37.8641C77.4664 37.9547 77.3485 38 77.2044 38H75.0622Z" fill="#E73D66"/>
<path d="M79.7995 38C79.6815 38 79.5833 37.9612 79.5047 37.8835C79.4261 37.7929 79.3868 37.6959 79.3868 37.5924C79.3868 37.5276 79.3933 37.4694 79.4064 37.4176L84.0838 24.9359C84.1231 24.7935 84.2017 24.6706 84.3196 24.5671C84.4375 24.4635 84.6013 24.4118 84.8109 24.4118H87.3265C87.5361 24.4118 87.6999 24.4635 87.8178 24.5671C87.9357 24.6706 88.0143 24.7935 88.0536 24.9359L92.731 37.4176C92.7441 37.4694 92.7506 37.5276 92.7506 37.5924C92.7506 37.6959 92.7113 37.7929 92.6327 37.8835C92.5541 37.9612 92.4558 38 92.3379 38H90.294C90.0975 38 89.9534 37.9547 89.8617 37.8641C89.77 37.7735 89.711 37.6894 89.6848 37.6118L88.8397 35.4376H83.2977L82.4526 37.6118C82.4264 37.6894 82.3674 37.7735 82.2757 37.8641C82.184 37.9547 82.0399 38 81.8433 38H79.7995ZM84.0248 32.9335H88.0929L86.0687 27.3429L84.0248 32.9335Z" fill="#E73D66"/>
<path d="M94.9341 38C94.79 38 94.6721 37.9547 94.5803 37.8641C94.4886 37.7735 94.4428 37.6571 94.4428 37.5147V24.8971C94.4428 24.7547 94.4886 24.6382 94.5803 24.5476C94.6721 24.4571 94.79 24.4118 94.9341 24.4118H105.527C105.671 24.4118 105.789 24.4571 105.881 24.5476C105.972 24.6382 106.018 24.7547 106.018 24.8971V37.5147C106.018 37.6571 105.972 37.7735 105.881 37.8641C105.789 37.9547 105.671 38 105.527 38H103.385C103.241 38 103.123 37.9547 103.031 37.8641C102.939 37.7735 102.893 37.6571 102.893 37.5147V27.1682H97.5676V37.5147C97.5676 37.6571 97.5217 37.7735 97.43 37.8641C97.3383 37.9547 97.2204 38 97.0762 38H94.9341Z" fill="#E73D66"/>
<path d="M109.424 38C109.28 38 109.162 37.9547 109.07 37.8641C108.979 37.7735 108.933 37.6571 108.933 37.5147V24.8971C108.933 24.7547 108.979 24.6382 109.07 24.5476C109.162 24.4571 109.28 24.4118 109.424 24.4118H111.566C111.71 24.4118 111.828 24.4571 111.92 24.5476C112.012 24.6382 112.058 24.7547 112.058 24.8971V29.2065H114.082C115.693 29.2065 116.945 29.5688 117.836 30.2935C118.726 31.0053 119.172 32.0859 119.172 33.5353C119.172 34.3894 118.975 35.1594 118.582 35.8453C118.202 36.5182 117.632 37.0488 116.873 37.4371C116.126 37.8124 115.196 38 114.082 38H109.424ZM112.058 35.5735H113.984C114.613 35.5735 115.097 35.3859 115.438 35.0106C115.779 34.6224 115.949 34.1306 115.949 33.5353C115.949 32.8882 115.779 32.4094 115.438 32.0988C115.097 31.7753 114.613 31.6135 113.984 31.6135H112.058V35.5735ZM121.255 38C121.111 38 120.993 37.9547 120.901 37.8641C120.81 37.7735 120.764 37.6571 120.764 37.5147V24.8971C120.764 24.7547 120.81 24.6382 120.901 24.5476C120.993 24.4571 121.111 24.4118 121.255 24.4118H123.476C123.62 24.4118 123.738 24.4571 123.83 24.5476C123.921 24.6382 123.967 24.7547 123.967 24.8971V37.5147C123.967 37.6571 123.921 37.7735 123.83 37.8641C123.738 37.9547 123.62 38 123.476 38H121.255Z" fill="#E73D66"/>
<path fill-rule="evenodd" clip-rule="evenodd" d="M28.1679 16.7954C28.6315 16.7954 29.0066 16.4104 29.0066 15.9367C29.0066 15.4621 28.6315 15.0781 28.1679 15.0781C27.7042 15.0781 27.3282 15.4631 27.3282 15.9367C27.3282 16.4114 27.7042 16.7954 28.1679 16.7954ZM17.0206 12.7869C16.7115 14.1028 15.9586 15.6685 14.1304 15.7882C14.1228 15.5605 14.1256 15.3396 14.1388 15.1264C14.1831 14.4125 14.3462 13.8008 14.6524 13.3667C15.051 12.8013 15.7305 12.5322 16.7586 12.7357C16.8444 12.7531 16.933 12.7705 17.0206 12.7869ZM35.5853 33.1631L35.0547 33.7063C34.9322 33.6001 34.8116 33.4911 34.6947 33.3782C33.4027 32.1357 32.4302 30.4753 31.8921 28.8092C29.9377 22.7642 35.7521 20.6495 34.4884 15.055C37.0912 19.6819 30.6473 22.523 32.6036 28.57C33.1059 30.1232 34.0087 31.6687 35.2074 32.8216C35.3299 32.9383 35.4562 33.0531 35.5853 33.1631ZM3.70775 3.79648C8.65236 -1.26549 16.7426 -1.26549 21.6872 3.79648L24.9996 7.18754L28.3121 3.79648C33.2567 -1.26549 41.3469 -1.26549 46.2915 3.79648C51.2362 8.85846 51.2362 17.1407 46.2915 22.2027L43.8178 24.7352C43.8395 21.2148 43.2835 18.4692 42.3628 16.3477C41.2027 13.6764 39.4594 11.9987 37.568 11.0147C35.6729 10.0287 33.628 9.73445 31.8714 9.83381C30.0423 9.93608 28.5477 10.4541 27.8852 11.0494C26.3915 12.3904 24.4729 12.9856 22.4835 13.1564C20.8928 13.2924 19.2568 13.1573 17.7632 12.9171C17.4145 14.5003 16.5146 16.4818 14.1916 16.5783C14.2321 16.914 14.2906 17.2584 14.3659 17.6067C15.002 20.5578 16.7794 23.7617 18.6829 24.2981C19.4105 24.5036 20.1172 24.6888 20.7967 24.8673C31.0186 27.5503 31.9072 36.9285 25.0006 44L7.02018 25.5938L3.70775 22.2027C-1.23592 17.1407 -1.23592 8.85846 3.70775 3.79648Z" fill="#E73D66"/>
</svg>
