<svg width="12" height="12" viewBox="0 0 12 12" fill="none" xmlns="http://www.w3.org/2000/svg">
<path d="M11.2426 11.9942C4.84647 12.0032 -0.00781202 7.09078 -0.000969337 0.750602C-0.000969337 0.336556 0.334682 -0.000976562 0.748728 -0.000976562H2.72745C3.09898 -0.000976562 3.41459 0.27201 3.46915 0.639512C3.5999 1.52031 3.85635 2.37779 4.23068 3.18576L4.30772 3.35205C4.41484 3.58326 4.34223 3.85797 4.13486 4.00606C3.52208 4.44367 3.28789 5.32454 3.76528 6.01186C4.36434 6.87438 5.11949 7.62937 5.98181 8.22817C6.6691 8.70542 7.54983 8.47126 7.98743 7.85858C8.13562 7.65111 8.41048 7.57846 8.64183 7.68563L8.80735 7.76231C9.61538 8.13661 10.4729 8.39307 11.3538 8.5238C11.7213 8.57834 11.9942 8.89394 11.9942 9.26548V11.2445C11.9942 11.6585 11.6577 11.9942 11.2437 11.9942L11.2426 11.9942Z" fill="#1A3444"/>
</svg>
