<svg width="60" height="60" viewBox="0 0 60 60" fill="none" xmlns="http://www.w3.org/2000/svg">
<circle cx="30" cy="30" r="30" fill="#E73D66"/>
<path d="M36.25 41.5625H23.75C19.1875 41.5625 16.5625 38.9375 16.5625 34.375V25.625C16.5625 21.0625 19.1875 18.4375 23.75 18.4375H36.25C40.8125 18.4375 43.4375 21.0625 43.4375 25.625V34.375C43.4375 38.9375 40.8125 41.5625 36.25 41.5625ZM23.75 20.3125C20.175 20.3125 18.4375 22.05 18.4375 25.625V34.375C18.4375 37.95 20.175 39.6875 23.75 39.6875H36.25C39.825 39.6875 41.5625 37.95 41.5625 34.375V25.625C41.5625 22.05 39.825 20.3125 36.25 20.3125H23.75Z" fill="white"/>
<path d="M29.9997 31.0875C28.9497 31.0875 27.8872 30.7625 27.0747 30.1L23.1622 26.975C22.7622 26.65 22.6872 26.0625 23.0122 25.6625C23.3372 25.2625 23.9247 25.1875 24.3247 25.5125L28.2372 28.6375C29.1872 29.4 30.7997 29.4 31.7497 28.6375L35.6622 25.5125C36.0622 25.1875 36.6622 25.25 36.9747 25.6625C37.2997 26.0625 37.2372 26.6625 36.8247 26.975L32.9122 30.1C32.1122 30.7625 31.0497 31.0875 29.9997 31.0875Z" fill="white"/>
</svg>
