<svg width="60" height="60" viewBox="0 0 60 60" fill="none" xmlns="http://www.w3.org/2000/svg">
<circle cx="30" cy="30" r="30" fill="#E73D66"/>
<path d="M30 32.7125C27.3375 32.7125 25.1625 30.55 25.1625 27.875C25.1625 25.2 27.3375 23.05 30 23.05C32.6625 23.05 34.8375 25.2125 34.8375 27.8875C34.8375 30.5625 32.6625 32.7125 30 32.7125ZM30 24.925C28.375 24.925 27.0375 26.25 27.0375 27.8875C27.0375 29.525 28.3625 30.85 30 30.85C31.6375 30.85 32.9625 29.525 32.9625 27.8875C32.9625 26.25 31.625 24.925 30 24.925Z" fill="white"/>
<path d="M30 43.45C28.15 43.45 26.2875 42.75 24.8375 41.3625C21.15 37.8125 17.075 32.15 18.6125 25.4125C20 19.3 25.3375 16.5625 30 16.5625C30 16.5625 30 16.5625 30.0125 16.5625C34.675 16.5625 40.0125 19.3 41.4 25.425C42.925 32.1625 38.85 37.8125 35.1625 41.3625C33.7125 42.75 31.85 43.45 30 43.45ZM30 18.4375C26.3625 18.4375 21.6875 20.375 20.45 25.825C19.1 31.7125 22.8 36.7875 26.15 40C28.3125 42.0875 31.7 42.0875 33.8625 40C37.2 36.7875 40.9 31.7125 39.575 25.825C38.325 20.375 33.6375 18.4375 30 18.4375Z" fill="white"/>
</svg>
