<svg width="60" height="60" viewBox="0 0 60 60" fill="none" xmlns="http://www.w3.org/2000/svg">
<circle cx="30" cy="30" r="30" fill="#E73D66"/>
<path d="M36.8125 43.4375C35.4 43.4375 33.9125 43.1 32.375 42.45C30.875 41.8125 29.3625 40.9375 27.8875 39.875C26.425 38.8 25.0125 37.6 23.675 36.2875C22.35 34.95 21.15 33.5375 20.0875 32.0875C19.0125 30.5875 18.15 29.0875 17.5375 27.6375C16.8875 26.0875 16.5625 24.5875 16.5625 23.175C16.5625 22.2 16.7375 21.275 17.075 20.4125C17.425 19.525 17.9875 18.7 18.75 17.9875C19.7125 17.0375 20.8125 16.5625 21.9875 16.5625C22.475 16.5625 22.975 16.675 23.4 16.875C23.8875 17.1 24.3 17.4375 24.6 17.8875L27.5 21.975C27.7625 22.3375 27.9625 22.6875 28.1 23.0375C28.2625 23.4125 28.35 23.7875 28.35 24.15C28.35 24.625 28.2125 25.0875 27.95 25.525C27.7625 25.8625 27.475 26.225 27.1125 26.5875L26.2625 27.475C26.275 27.5125 26.2875 27.5375 26.3 27.5625C26.45 27.825 26.75 28.275 27.325 28.95C27.9375 29.65 28.5125 30.2875 29.0875 30.875C29.825 31.6 30.4375 32.175 31.0125 32.65C31.725 33.25 32.1875 33.55 32.4625 33.6875L32.4375 33.75L33.35 32.85C33.7375 32.4625 34.1125 32.175 34.475 31.9875C35.1625 31.5625 36.0375 31.4875 36.9125 31.85C37.2375 31.9875 37.5875 32.175 37.9625 32.4375L42.1125 35.3875C42.575 35.7 42.9125 36.1 43.1125 36.575C43.3 37.05 43.3875 37.4875 43.3875 37.925C43.3875 38.525 43.25 39.125 42.9875 39.6875C42.725 40.25 42.4 40.7375 41.9875 41.1875C41.275 41.975 40.5 42.5375 39.6 42.9C38.7375 43.25 37.8 43.4375 36.8125 43.4375ZM21.9875 18.4375C21.3 18.4375 20.6625 18.7375 20.05 19.3375C19.475 19.875 19.075 20.4625 18.825 21.1C18.5625 21.75 18.4375 22.4375 18.4375 23.175C18.4375 24.3375 18.7125 25.6 19.2625 26.9C19.825 28.225 20.6125 29.6 21.6125 30.975C22.6125 32.35 23.75 33.6875 25 34.95C26.25 36.1875 27.6 37.3375 28.9875 38.35C30.3375 39.3375 31.725 40.1375 33.1 40.7125C35.2375 41.625 37.2375 41.8375 38.8875 41.15C39.525 40.8875 40.0875 40.4875 40.6 39.9125C40.8875 39.6 41.1125 39.2625 41.3 38.8625C41.45 38.55 41.525 38.225 41.525 37.9C41.525 37.7 41.4875 37.5 41.3875 37.275C41.35 37.2 41.275 37.0625 41.0375 36.9L36.8875 33.95C36.6375 33.775 36.4125 33.65 36.2 33.5625C35.925 33.45 35.8125 33.3375 35.3875 33.6C35.1375 33.725 34.9125 33.9125 34.6625 34.1625L33.7125 35.1C33.225 35.575 32.475 35.6875 31.9 35.475L31.5625 35.325C31.05 35.05 30.45 34.625 29.7875 34.0625C29.1875 33.55 28.5375 32.95 27.75 32.175C27.1375 31.55 26.525 30.8875 25.8875 30.15C25.3 29.4625 24.875 28.875 24.6125 28.3875L24.4625 28.0125C24.3875 27.725 24.3625 27.5625 24.3625 27.3875C24.3625 26.9375 24.525 26.5375 24.8375 26.225L25.775 25.25C26.025 25 26.2125 24.7625 26.3375 24.55C26.4375 24.3875 26.475 24.25 26.475 24.125C26.475 24.025 26.4375 23.875 26.375 23.725C26.2875 23.525 26.15 23.3 25.975 23.0625L23.075 18.9625C22.95 18.7875 22.8 18.6625 22.6125 18.575C22.4125 18.4875 22.2 18.4375 21.9875 18.4375ZM32.4375 33.7625L32.2375 34.6125L32.575 33.7375C32.5125 33.725 32.4625 33.7375 32.4375 33.7625Z" fill="white"/>
<path d="M38.125 27.1875C37.6125 27.1875 37.1875 26.7625 37.1875 26.25C37.1875 25.8 36.7375 24.8625 35.9875 24.0625C35.25 23.275 34.4375 22.8125 33.75 22.8125C33.2375 22.8125 32.8125 22.3875 32.8125 21.875C32.8125 21.3625 33.2375 20.9375 33.75 20.9375C34.9625 20.9375 36.2375 21.5875 37.35 22.775C38.3875 23.8875 39.0625 25.25 39.0625 26.25C39.0625 26.7625 38.6375 27.1875 38.125 27.1875Z" fill="white"/>
<path d="M42.5 27.1875C41.9875 27.1875 41.5625 26.7625 41.5625 26.25C41.5625 21.9375 38.0625 18.4375 33.75 18.4375C33.2375 18.4375 32.8125 18.0125 32.8125 17.5C32.8125 16.9875 33.2375 16.5625 33.75 16.5625C39.0875 16.5625 43.4375 20.9125 43.4375 26.25C43.4375 26.7625 43.0125 27.1875 42.5 27.1875Z" fill="white"/>
</svg>
